<?xml version="1.0" encoding="UTF-8"?>
<!DOCTYPE svg PUBLIC "-//W3C//DTD SVG 1.1//EN" "http://www.w3.org/Graphics/SVG/1.1/DTD/svg11.dtd">
<svg xmlns="http://www.w3.org/2000/svg" version="1.1" width="64px" height="64px" style="shape-rendering:geometricPrecision; text-rendering:geometricPrecision; image-rendering:optimizeQuality; fill-rule:evenodd; clip-rule:evenodd" xmlns:xlink="http://www.w3.org/1999/xlink">
<g><path style="opacity:0.986" fill="#000000" d="M 1.5,6.5 C 21.5028,6.33338 41.5028,6.50005 61.5,7C 62.6575,23.0925 62.8242,39.2592 62,55.5C 41.9065,56.6593 21.7398,56.826 1.5,56C 0.17361,39.5 0.17361,23 1.5,6.5 Z"/></g>
<g><path style="opacity:1" fill="#006cef" d="M 2.5,8.5 C 21.8333,8.5 41.1667,8.5 60.5,8.5C 60.5,9.83333 60.5,11.1667 60.5,12.5C 41.1667,12.5 21.8333,12.5 2.5,12.5C 2.5,11.1667 2.5,9.83333 2.5,8.5 Z"/></g>
<g><path style="opacity:1" fill="#080f1f" d="M 3.5,9.5 C 4.67504,9.28099 5.67504,9.61432 6.5,10.5C 4.94835,11.7979 3.94835,11.4646 3.5,9.5 Z"/></g>
<g><path style="opacity:1" fill="#080f1f" d="M 7.5,9.5 C 8.67504,9.28099 9.67504,9.61432 10.5,10.5C 8.94835,11.7979 7.94835,11.4646 7.5,9.5 Z"/></g>
<g><path style="opacity:1" fill="#080f1f" d="M 11.5,9.5 C 12.675,9.28099 13.675,9.61432 14.5,10.5C 12.9483,11.7979 11.9483,11.4646 11.5,9.5 Z"/></g>
<g><path style="opacity:1" fill="#77b8ea" d="M 2.5,14.5 C 21.8333,14.5 41.1667,14.5 60.5,14.5C 60.5,27.8333 60.5,41.1667 60.5,54.5C 41.1667,54.5 21.8333,54.5 2.5,54.5C 2.5,41.1667 2.5,27.8333 2.5,14.5 Z"/></g>
<g><path style="opacity:1" fill="#020506" d="M 4.5,17.5 C 12.5,17.5 20.5,17.5 28.5,17.5C 28.5,24.1667 28.5,30.8333 28.5,37.5C 20.5,37.5 12.5,37.5 4.5,37.5C 4.5,30.8333 4.5,24.1667 4.5,17.5 Z"/></g>
<g><path style="opacity:1" fill="#010102" d="M 30.5,17.5 C 39.8333,17.5 49.1667,17.5 58.5,17.5C 58.5,20.5 58.5,23.5 58.5,26.5C 49.1667,26.5 39.8333,26.5 30.5,26.5C 30.5,23.5 30.5,20.5 30.5,17.5 Z"/></g>
<g><path style="opacity:1" fill="#006bed" d="M 6.5,19.5 C 13.1667,19.5 19.8333,19.5 26.5,19.5C 26.6653,23.1817 26.4986,26.8484 26,30.5C 24.3163,28.6487 22.4829,26.982 20.5,25.5C 18.1831,27.316 16.0165,29.316 14,31.5C 13.3109,30.6433 12.4776,29.9767 11.5,29.5C 9.85131,30.6477 8.35131,31.981 7,33.5C 6.50085,28.8452 6.33418,24.1785 6.5,19.5 Z"/></g>
<g><path style="opacity:1" fill="#feda43" d="M 32.5,19.5 C 40.5,19.5 48.5,19.5 56.5,19.5C 56.5,21.1667 56.5,22.8333 56.5,24.5C 48.5,24.5 40.5,24.5 32.5,24.5C 32.5,22.8333 32.5,21.1667 32.5,19.5 Z"/></g>
<g><path style="opacity:1" fill="#0b101f" d="M 9.5,22.5 C 14.1585,22.0146 15.4919,23.848 13.5,28C 8.72816,28.8104 7.39483,26.9771 9.5,22.5 Z"/></g>
<g><path style="opacity:1" fill="#c3a634" d="M 10.5,24.5 C 12.337,24.6395 12.6704,25.3061 11.5,26.5C 10.7025,26.0431 10.3691,25.3764 10.5,24.5 Z"/></g>
<g><path style="opacity:1" fill="#030405" d="M 30.5,28.5 C 39.8571,28.1684 49.1904,28.5017 58.5,29.5C 53.8333,29.8333 49.1667,30.1667 44.5,30.5C 39.4492,30.4933 34.7825,29.8266 30.5,28.5 Z"/></g>
<g><path style="opacity:1" fill="#4c8c1d" d="M 19.5,28.5 C 29.3652,34.0476 28.6985,36.2143 17.5,35C 16.8333,34.3333 16.1667,33.6667 15.5,33C 17.0414,31.6288 18.3747,30.1288 19.5,28.5 Z"/></g>
<g><path style="opacity:1" fill="#030405" d="M 30.5,31.5 C 39.8571,31.1684 49.1904,31.5017 58.5,32.5C 53.8333,32.8333 49.1667,33.1667 44.5,33.5C 39.4492,33.4933 34.7825,32.8266 30.5,31.5 Z"/></g>
<g><path style="opacity:1" fill="#8bc304" d="M 10.5,32.5 C 12.1958,32.6854 13.5291,33.5187 14.5,35C 12.5,35.6667 10.5,35.6667 8.5,35C 9.38053,34.2917 10.0472,33.4584 10.5,32.5 Z"/></g>
<g><path style="opacity:1" fill="#030405" d="M 30.5,34.5 C 39.8571,34.1684 49.1904,34.5017 58.5,35.5C 53.8333,35.8333 49.1667,36.1667 44.5,36.5C 39.4492,36.4933 34.7825,35.8266 30.5,34.5 Z"/></g>
<g><path style="opacity:1" fill="#05080b" d="M 30.5,37.5 C 35.2137,37.1734 39.8804,37.5067 44.5,38.5C 42.1667,38.8333 39.8333,39.1667 37.5,39.5C 34.7305,39.4714 32.3972,38.8048 30.5,37.5 Z"/></g>
<g><path style="opacity:1" fill="#1b1912" d="M 4.5,39.5 C 6.83333,39.5 9.16667,39.5 11.5,39.5C 11.5,41.1667 11.5,42.8333 11.5,44.5C 9.16667,44.5 6.83333,44.5 4.5,44.5C 4.5,42.8333 4.5,41.1667 4.5,39.5 Z"/></g>
<g><path style="opacity:1" fill="#050709" d="M 12.5,39.5 C 17.8746,39.1718 23.2079,39.5052 28.5,40.5C 25.8333,40.8333 23.1667,41.1667 20.5,41.5C 17.4098,41.4783 14.7432,40.8117 12.5,39.5 Z"/></g>
<g><path style="opacity:1" fill="#070b0e" d="M 12.5,42.5 C 15.8984,42.1796 19.2317,42.513 22.5,43.5C 20.8333,43.8333 19.1667,44.1667 17.5,44.5C 15.3603,44.4439 13.6936,43.7773 12.5,42.5 Z"/></g>
<g><path style="opacity:1" fill="#030405" d="M 30.5,42.5 C 39.8571,42.1684 49.1904,42.5017 58.5,43.5C 53.8333,43.8333 49.1667,44.1667 44.5,44.5C 39.4492,44.4933 34.7825,43.8266 30.5,42.5 Z"/></g>
<g><path style="opacity:1" fill="#05080b" d="M 30.5,45.5 C 35.2137,45.1734 39.8804,45.5067 44.5,46.5C 42.1667,46.8333 39.8333,47.1667 37.5,47.5C 34.7305,47.4714 32.3972,46.8048 30.5,45.5 Z"/></g>
<g><path style="opacity:1" fill="#1b1912" d="M 4.5,46.5 C 6.83333,46.5 9.16667,46.5 11.5,46.5C 11.5,48.1667 11.5,49.8333 11.5,51.5C 9.16667,51.5 6.83333,51.5 4.5,51.5C 4.5,49.8333 4.5,48.1667 4.5,46.5 Z"/></g>
<g><path style="opacity:1" fill="#050709" d="M 12.5,46.5 C 17.8746,46.1718 23.2079,46.5052 28.5,47.5C 25.8333,47.8333 23.1667,48.1667 20.5,48.5C 17.4098,48.4783 14.7432,47.8117 12.5,46.5 Z"/></g>
<g><path style="opacity:1" fill="#070b0e" d="M 12.5,49.5 C 15.8984,49.1796 19.2317,49.513 22.5,50.5C 20.8333,50.8333 19.1667,51.1667 17.5,51.5C 15.3603,51.4439 13.6936,50.7773 12.5,49.5 Z"/></g>
</svg>
