<?xml version="1.0" standalone="no"?>
<!DOCTYPE svg PUBLIC "-//W3C//DTD SVG 20010904//EN"
 "http://www.w3.org/TR/2001/REC-SVG-20010904/DTD/svg10.dtd">
<svg version="1.0" xmlns="http://www.w3.org/2000/svg"
 width="23.000000pt" height="23.000000pt" viewBox="0 0 23.000000 23.000000"
 preserveAspectRatio="xMidYMid meet">

<g transform="translate(0.000000,23.000000) scale(0.100000,-0.100000)"
fill="#000000" stroke="none">
<path d="M112 202 c-47 -3 -54 -6 -68 -34 -22 -42 -6 -78 33 -78 22 0 25 -2
13 -10 -8 -5 -13 -10 -10 -11 52 -9 91 -9 84 2 -4 8 -3 10 4 5 7 -4 12 -17 12
-28 0 -30 6 -19 14 25 7 37 6 37 -15 25 -16 -10 -23 -10 -26 -1 -2 7 -12 10
-21 7 -15 -5 -15 -4 1 6 9 6 17 17 17 24 0 19 -27 40 -34 27 -4 -5 -2 -12 4
-16 14 -9 13 -22 -3 -28 -9 -3 -13 3 -13 16 1 16 -7 23 -29 27 l-30 6 38 6
c21 4 50 3 64 -3 30 -11 32 -10 24 16 -5 17 -13 20 -59 17z m-22 -88 c0 -9 -7
-14 -17 -12 -25 5 -28 28 -4 28 12 0 21 -6 21 -16z"/>
<path d="M31 74 c0 -11 3 -14 6 -6 3 7 2 16 -1 19 -3 4 -6 -2 -5 -13z"/>
<path d="M100 40 c0 -21 35 -35 67 -27 12 3 8 5 -10 6 -20 1 -31 7 -34 21 -7
26 -23 26 -23 0z"/>
<path d="M41 34 c0 -11 3 -14 6 -6 3 7 2 16 -1 19 -3 4 -6 -2 -5 -13z"/>
</g>
</svg>
