<?xml version="1.0" standalone="no"?>
<!DOCTYPE svg PUBLIC "-//W3C//DTD SVG 20010904//EN"
 "http://www.w3.org/TR/2001/REC-SVG-20010904/DTD/svg10.dtd">
<svg version="1.0" xmlns="http://www.w3.org/2000/svg"
 width="36.000000pt" height="36.000000pt" viewBox="0 0 36.000000 36.000000"
 preserveAspectRatio="xMidYMid meet">

<g transform="translate(0.000000,36.000000) scale(0.100000,-0.100000)"
fill="#000000" stroke="none">
<path d="M103 333 c-7 -2 -13 -10 -13 -16 0 -7 -12 -34 -25 -62 -29 -59 -31
-109 -7 -182 l17 -53 49 0 49 0 -5 50 c-3 28 -1 50 3 50 5 0 9 -22 9 -49 l0
-49 46 -4 c25 -2 49 -1 53 2 4 3 13 37 20 75 8 39 23 83 33 98 14 19 18 36 14
53 -6 22 -11 25 -36 19 -26 -6 -29 -3 -41 29 -7 20 -17 36 -22 36 -4 0 -6 -4
-2 -9 3 -5 -28 -11 -70 -13 -76 -3 -99 10 -39 23 26 6 27 7 4 7 -14 0 -31 -2
-37 -5z m85 -74 c-10 -17 -10 -23 0 -26 19 -7 14 -41 -8 -53 -19 -10 -20 -8
-20 31 l0 42 -45 -5 c-37 -5 -43 -3 -34 8 10 13 38 20 92 23 25 1 26 -1 15
-20z m69 15 c-3 -3 -12 -4 -19 -1 -8 3 -5 6 6 6 11 1 17 -2 13 -5z m81 -38 c2
-9 -11 -36 -29 -60 -27 -39 -34 -43 -50 -33 -11 7 -19 15 -19 19 0 4 -15 5
-32 2 l-33 -5 28 16 c34 20 39 65 6 65 -11 0 -18 4 -14 9 3 5 36 8 73 6 52 -2
68 -6 70 -19z m-188 -38 c-1 -43 -62 -52 -68 -10 -3 19 1 22 32 22 22 0 36 -5
36 -12z m-50 -53 c16 -4 34 -4 39 -1 5 4 12 2 16 -4 3 -6 -4 -14 -17 -19 -22
-9 -22 -12 5 -15 6 0 13 -18 15 -38 3 -38 3 -38 -36 -38 l-39 0 -17 58 c-9 32
-16 72 -15 88 l1 29 9 -27 c7 -18 20 -29 39 -33z m137 -9 c0 -8 -8 -11 -20 -8
-14 4 -16 7 -5 13 19 12 25 11 25 -5z m33 -17 c0 -5 -4 -9 -8 -9 -5 0 -9 7 -9
15 0 8 4 12 9 9 4 -3 8 -9 8 -15z m13 -47 l-6 -42 -43 0 c-44 0 -44 0 -44 36
0 36 1 36 34 30 24 -5 37 -2 46 9 18 21 20 16 13 -33z"/>
<path d="M193 333 c9 -2 23 -2 30 0 6 3 -1 5 -18 5 -16 0 -22 -2 -12 -5z"/>
</g>
</svg>
