<?xml version="1.0" encoding="UTF-8"?>
<!DOCTYPE svg PUBLIC "-//W3C//DTD SVG 1.1//EN" "http://www.w3.org/Graphics/SVG/1.1/DTD/svg11.dtd">
<svg xmlns="http://www.w3.org/2000/svg" version="1.1" width="96px" height="96px" style="shape-rendering:geometricPrecision; text-rendering:geometricPrecision; image-rendering:optimizeQuality; fill-rule:evenodd; clip-rule:evenodd" xmlns:xlink="http://www.w3.org/1999/xlink">
<g><path style="opacity:0.776" fill="#0f0e0e" d="M 35.5,3.5 C 47.1757,2.54302 58.509,4.04302 69.5,8C 69.4025,14.9166 71.7358,20.9166 76.5,26C 79.7199,25.3214 82.8866,24.1547 86,22.5C 92.3356,25.5091 94.669,30.5091 93,37.5C 89.9148,42.672 86.5814,47.672 83,52.5C 81.5914,61.5435 79.9247,70.5435 78,79.5C 77.5012,83.4862 77.3345,87.4862 77.5,91.5C 67.8027,92.3624 58.136,91.8624 48.5,90C 47.0059,82.7322 46.6726,75.3989 47.5,68C 47.5765,65.2439 46.2431,64.0772 43.5,64.5C 45.9851,73.0419 46.6518,81.7086 45.5,90.5C 36.17,89.2055 26.8366,89.2055 17.5,90.5C 17.3256,87.1262 16.8256,83.7928 16,80.5C 9.96444,67.7905 7.96444,54.4571 10,40.5C 13.3779,32.7426 17.0445,25.0759 21,17.5C 21.517,14.0801 22.3503,10.7468 23.5,7.5C 27.5504,5.9276 31.5504,4.59426 35.5,3.5 Z"/></g>
<g><path style="opacity:1" fill="#eeb48c" d="M 37.5,5.5 C 47.7488,5.09758 57.7488,6.43091 67.5,9.5C 67.5,10.8333 67.5,12.1667 67.5,13.5C 56.1758,12.6525 44.8424,12.4859 33.5,13C 30.6484,13.2694 27.9818,14.1028 25.5,15.5C 24.1667,13.5 24.1667,11.5 25.5,9.5C 29.5109,7.83952 33.5109,6.50619 37.5,5.5 Z"/></g>
<g><path style="opacity:1" fill="#416c9c" d="M 33.5,14.5 C 44.8815,14.1445 56.2148,14.6445 67.5,16C 67.9574,16.414 68.2907,16.914 68.5,17.5C 53.3836,16.6299 38.3836,17.9632 23.5,21.5C 22.4063,20.132 22.7397,18.9653 24.5,18C 27.4588,16.3957 30.4588,15.2291 33.5,14.5 Z"/></g>
<g><path style="opacity:1" fill="#6e9bab" d="M 45.5,19.5 C 53.5852,19.0989 61.5852,19.5989 69.5,21C 71.5628,22.5716 72.2294,24.405 71.5,26.5C 67.61,25.0163 63.61,23.8497 59.5,23C 57.8333,22.3333 56.1667,22.3333 54.5,23C 50.652,25.6474 48.3186,29.1474 47.5,33.5C 49.9201,33.7076 52.2534,33.3742 54.5,32.5C 55.6609,36.7953 55.8275,41.1287 55,45.5C 50.0303,47.1506 45.697,49.8173 42,53.5C 40.9202,56.2371 41.7536,57.9037 44.5,58.5C 48.1214,57.1182 51.7881,56.2849 55.5,56C 50.5545,57.8061 45.8878,60.1394 41.5,63C 38.1815,63.8792 34.8482,64.7125 31.5,65.5C 34.7508,66.2196 37.9175,66.5529 41,66.5C 43.2219,73.3079 44.0552,80.3079 43.5,87.5C 35.5,87.5 27.5,87.5 19.5,87.5C 19.6633,85.1432 19.4966,82.8098 19,80.5C 15.7379,73.4484 13.4046,66.115 12,58.5C 9.92135,46.0723 12.7547,34.9056 20.5,25C 28.6795,21.9329 37.0129,20.0996 45.5,19.5 Z"/></g>
<g><path style="opacity:1" fill="#f1b78e" d="M 55.5,24.5 C 61.9544,26.0721 68.4544,27.4054 75,28.5C 79.3762,28.0222 83.5429,27.1889 87.5,26C 91.0349,28.7071 92.2016,32.2071 91,36.5C 83.5,46.6667 76,56.8333 68.5,67C 66.4213,67.8077 64.4213,67.641 62.5,66.5C 65.5,64.5 68.5,62.5 71.5,60.5C 72.8333,59.8333 72.8333,59.1667 71.5,58.5C 66.2213,61.9725 60.5546,64.6391 54.5,66.5C 53.8333,66.1667 53.1667,65.8333 52.5,65.5C 57.0902,63.4556 61.7569,61.2889 66.5,59C 68.7969,57.7367 69.6302,55.9034 69,53.5C 62.9676,59.7747 55.801,62.608 47.5,62C 51.2896,59.6228 55.2896,57.6228 59.5,56C 61,54.5 62.5,53 64,51.5C 64.5908,50.5165 64.2575,49.8499 63,49.5C 59.1147,51.4427 55.1147,53.1094 51,54.5C 48.589,52.8466 47.4223,53.5133 47.5,56.5C 46.0222,56.762 44.6888,56.4287 43.5,55.5C 43.6667,55.1667 43.8333,54.8333 44,54.5C 48.9161,50.957 54.0828,47.7903 59.5,45C 64.498,34.0222 61.1646,29.3556 49.5,31C 51.7059,28.9633 53.7059,26.7966 55.5,24.5 Z"/></g>
<g><path style="opacity:1" fill="#131719" d="M 29.5,29.5 C 33.5,29.5 37.5,29.5 41.5,29.5C 41.6663,36.175 41.4996,42.8417 41,49.5C 36.974,57.935 30.8073,59.7683 22.5,55C 21.0692,54.5348 19.9025,53.7014 19,52.5C 16.4815,46.4464 15.9815,40.2797 17.5,34C 21.4324,31.9716 25.4324,30.4716 29.5,29.5 Z"/></g>
<g><path style="opacity:1" fill="#6f9bac" d="M 29.5,31.5 C 32.8333,31.5 36.1667,31.5 39.5,31.5C 39.5,32.8333 39.5,34.1667 39.5,35.5C 32.7316,35.286 26.065,35.9527 19.5,37.5C 19.281,36.325 19.6143,35.325 20.5,34.5C 23.5816,33.3655 26.5816,32.3655 29.5,31.5 Z"/></g>
<g><path style="opacity:1" fill="#638a99" d="M 57.5,33.5 C 58.1174,33.6107 58.6174,33.944 59,34.5C 59.8902,37.7055 59.5569,40.7055 58,43.5C 57.5017,40.1832 57.335,36.8499 57.5,33.5 Z"/></g>
<g><path style="opacity:1" fill="#6f9bab" d="M 27.5,37.5 C 31.5,37.5 35.5,37.5 39.5,37.5C 39.6655,41.5138 39.4988,45.5138 39,49.5C 37.5549,52.617 35.2216,54.617 32,55.5C 21.3856,55.2882 17.2189,49.9549 19.5,39.5C 22.3725,39.1977 25.0392,38.531 27.5,37.5 Z"/></g>
<g><path style="opacity:1" fill="#382b22" d="M 63.5,43.5 C 64.9953,43.4148 65.9953,44.0815 66.5,45.5C 64.6043,46.6394 63.6043,45.9728 63.5,43.5 Z"/></g>
<g><path style="opacity:1" fill="#654e3e" d="M 68.5,50.5 C 69.3864,49.2241 70.3864,49.2241 71.5,50.5C 70.5754,51.5624 69.5754,51.5624 68.5,50.5 Z"/></g>
<g><path style="opacity:1" fill="#654d3d" d="M 73.5,53.5 C 75.337,53.6395 75.6704,54.3061 74.5,55.5C 73.7025,55.0431 73.3691,54.3764 73.5,53.5 Z"/></g>
<g><path style="opacity:1" fill="#709dad" d="M 79.5,54.5 C 80.0967,54.7352 80.4301,55.2352 80.5,56C 76.6951,66.8558 75.0284,78.0224 75.5,89.5C 67.1198,89.7382 58.7865,89.2382 50.5,88C 49.1889,81.2235 49.1889,74.3901 50.5,67.5C 56.4914,67.6545 62.4914,68.1545 68.5,69C 73.9827,65.5302 77.6494,60.6969 79.5,54.5 Z"/></g>
</svg>
